# xmcd
#
# Track frame offsets:
#	150
#	11885
#	20818
#	30942
#	44283
#	53774
#	65092
#	75396
#	87197
#	97694
#	109651
#	119907
#	130964
#	143687
#	154781
#	165829
#	177616
#	187990
#	196905
#	211907
#	223128
#	233799
#	244867
#	255657
#	270115
#
# Disc length: 3760 seconds
#
# Revision: 1
# Processed by: cddbd v1.5.2PL0 Copyright (c) Steve Scherf et al.
# Submitted via: audiograbber 1.83.01
#
DISCID=510eae19
DTITLE=Patsy Cline - The Anthology CD 3
DYEAR=1900
DGENRE=
TTITLE0=Walkin' After Midnight
TTITLE1=You Where Only Fooling (While I Was Falling In Love With You)
TTITLE2=Strange
TTITLE3=I Can't Help It (If I'm Still In Love With You)
TTITLE4=I'm Moving Along
TTITLE5=Lonely Street
TTITLE6=Walking Dream
TTITLE7=When I Get Through With You (You'll Love Me Too)
TTITLE8=Lovesick Blues
TTITLE9=You're Stronger Than Me
TTITLE10=How Can I Face Tomorrow
TTITLE11=There He Goes
TTITLE12=Yes I Understand
TTITLE13=Hidin' Out
TTITLE14=A Stranger In My Arms
TTITLE15=Let The Teardrops Fall
TTITLE16=I Love You Honey
TTITLE17=Try Again
TTITLE18=The Wayward Wind
TTITLE19=Cry Not For Me
TTITLE20=Stop Look And Listen
TTITLE21=Stop The World (And Let Me Off)
TTITLE22=I Cried All The Way To The Altar
TTITLE23=Then You'll Know
TTITLE24=Dear God
EXTD=
EXTT0=
EXTT1=
EXTT2=
EXTT3=
EXTT4=
EXTT5=
EXTT6=
EXTT7=
EXTT8=
EXTT9=
EXTT10=
EXTT11=
EXTT12=
EXTT13=
EXTT14=
EXTT15=
EXTT16=
EXTT17=
EXTT18=
EXTT19=
EXTT20=
EXTT21=
EXTT22=
EXTT23=
EXTT24=
PLAYORDER=
